/* XPM */
static char * wolf4sdl_xpm[] = {
"32 32 83 1",
" 	c None",
".	c #462E2E",
"+	c #5D4617",
"@	c #A25D00",
"#	c #D15D00",
"$	c #E87400",
"%	c #B95D00",
"&	c #8B4600",
"*	c #A25D17",
"=	c #46462E",
"-	c #744617",
";	c #8B4617",
">	c #5D462E",
",	c #A24600",
"'	c #FF7400",
")	c #74462E",
"!	c #2E2E2E",
"~	c #8B5D2E",
"{	c #8B462E",
"]	c #5D2E17",
"^	c #A25D2E",
"/	c #171717",
"(	c #B97446",
"_	c #D18B5D",
":	c #B9742E",
"<	c #A25D46",
"[	c #8B5D17",
"}	c #8B5D46",
"|	c #000000",
"1	c #2E2E46",
"2	c #A27446",
"3	c #D17446",
"4	c #E8A274",
"5	c #FFB98B",
"6	c #FFA274",
"7	c #E88B5D",
"8	c #745D2E",
"9	c #B95D17",
"0	c #5D2E00",
"a	c #E8A25D",
"b	c #B98B5D",
"c	c #74745D",
"d	c #FFB9A2",
"e	c #B9A2A2",
"f	c #5D4646",
"g	c #745D46",
"h	c #8B7446",
"i	c #A28B74",
"j	c #B98B8B",
"k	c #8B5D5D",
"l	c #5D5D5D",
"m	c #744646",
"n	c #2E2E17",
"o	c #46465D",
"p	c #745D74",
"q	c #B9745D",
"r	c #B95D2E",
"s	c #8B8B8B",
"t	c #1717A2",
"u	c #2E2E8B",
"v	c #A20000",
"w	c #17178B",
"x	c #2E2ED1",
"y	c #8B74E8",
"z	c #E8B9A2",
"A	c #E8A28B",
"B	c #E8B98B",
"C	c #E8A2A2",
"D	c #E8D1B9",
"E	c #FFD1B9",
"F	c #D18B46",
"G	c #FFA28B",
"H	c #B9A28B",
"I	c #B98B74",
"J	c #B9B9A2",
"K	c #D1B9A2",
"L	c #E8D1D1",
"M	c #E8E8E8",
"N	c #FFE8E8",
"O	c #FFD1A2",
"P	c #462E17",
"Q	c #D1A274",
"R	c #464617",
"      .+@####$##$$$$$#%+        ",
"      +&@%%%######$$$$#*+=      ",
"     =-@@@@@%%%%%%#$$$$#;>      ",
"     +;@@&&&,@@@*@##$''#*)      ",
"    !&@@,)++)~@;))@%$'$@@;      ",
"    !&,;{)+++>,-+]+%##%{;-      ",
"    !+&;~^^^~;;;)))*%@;~;+/     ",
"   =/+;;~(___:<^~~)[@*~}~]|     ",
"   1/))~2345567_328~**(390|     ",
"    !)~}(3a6555673<((b672>|     ",
"    !)~<2c345d56a3(3:2e6(>/     ",
"    =;^<~fghij473~)}gki4:~>!    ",
"    ~*^2~>!1lm((^+n1opq_rr2/    ",
"   f<~<3_stumv~}~~~wxyd5(2(/=   ",
"    ~~2_6zzzA774BBBCzDEdb^~/1   ",
"    ~~(F7555G7a5d5555555_(}/    ",
"    8~(3F6664F74AA6556aa_(~!    ",
"    )~(F_7777(F__F7464_7F28     ",
"     )(76F(3_______((366_}      ",
"     )(767HIFFFFFFFzA755qg      ",
"     n~_77eJKKzzzzzEBa55}=      ",
"     |)3_7HKLLMMMMNOB4d5)n      ",
"     |)(_6745OEEEEE46d55)!      ",
"     |]^365667__7a65d576)!      ",
"     |P)~_655647a65d56_a)!      ",
"     /P)+<_Q44_F_444Q_34)!      ",
"     !>)R)~2((^~^(3(<2F6g.      ",
"     =>)++++++)))~~^(_66c       ",
"      >)+)))~2^<222_4557k       ",
"      >))~^<(_3__F(7Gd5_c       ",
"      >))~2(_a7464_7654(g       ",
"      >)~^<(75765d6746_<f       "};
